<?xml version="1.0" encoding="UTF-8"?>
<svg version="1.1" xmlns="http://www.w3.org/2000/svg" width="769" height="304">
<path d="M0 0 C253.77 0 507.54 0 769 0 C769 100.32 769 200.64 769 304 C515.23 304 261.46 304 0 304 C0 203.68 0 103.36 0 0 Z " fill="#FF3D3D" transform="translate(0,0)"/>
<path d="M0 0 C253.77 0 507.54 0 769 0 C769 100.32 769 200.64 769 304 C515.23 304 261.46 304 0 304 C0 203.68 0 103.36 0 0 Z M15 16 C15 68.8 15 121.6 15 176 C257.88 176 500.76 176 751 176 C751 123.2 751 70.4 751 16 C508.12 16 265.24 16 15 16 Z " fill="#F8F8F8" transform="translate(0,0)"/>
<path d="M0 0 C6.6 0 13.2 0 20 0 C23.66666667 11 27.33333333 22 31 33 C34.3 22.11 37.6 11.22 41 0 C47.93 0 54.86 0 62 0 C62 18.15 62 36.3 62 55 C57.71 55 53.42 55 49 55 C48.67 42.13 48.34 29.26 48 16 C47.278125 19.09375 46.55625 22.1875 45.8125 25.375 C43.46605723 35.32658553 40.81966112 45.17318104 38 55 C33.38 55 28.76 55 24 55 C21.41572601 47.56524252 19.32898954 40.04365819 17.3125 32.4375 C16.219375 28.333125 15.12625 24.22875 14 20 C13.67 31.55 13.34 43.1 13 55 C8.71 55 4.42 55 0 55 C0 36.85 0 18.7 0 0 Z " fill="#FFF6F6" transform="translate(291,77)"/>
<path d="M0 0 C6.27 -0.061875 12.54 -0.12375 19 -0.1875 C21.94486328 -0.22846802 21.94486328 -0.22846802 24.94921875 -0.27026367 C26.5286396 -0.27903648 28.10806731 -0.28667853 29.6875 -0.29296875 C30.88922852 -0.3159906 30.88922852 -0.3159906 32.11523438 -0.33947754 C37.99505237 -0.34217305 44.00148449 0.2852851 48.56494141 4.41682434 C51.59191672 7.90828449 52.87130695 10.66159228 53.3125 15.25 C52.93775939 19.74688733 51.91113584 22.56111439 49 26 C45.93507154 28.46937364 43.04324642 29.91121307 39.0625 30.25 C38.381875 30.1675 37.70125 30.085 37 30 C37 30.66 37 31.32 37 32 C37.74507813 32.2475 38.49015625 32.495 39.2578125 32.75 C46.91595254 36.24089005 52.75032692 45.9747592 57 53 C57 53.66 57 54.32 57 55 C51.65149616 55.97739156 46.2435745 56.82285277 41 55 C36.93600439 51.73618041 34.29383607 47.35884209 31.55078125 42.98828125 C29.33138663 39.45859178 27.3783394 36.54674816 24 34 C20.7 33.34 17.4 32.68 14 32 C14 39.59 14 47.18 14 55 C9.38 55 4.76 55 0 55 C0 36.85 0 18.7 0 0 Z " fill="#FFF8F8" transform="translate(428,77)"/>
<path d="M0 0 C4.95 0 9.9 0 15 0 C20.19793024 10.22529532 25.17448122 20.52549796 29.90234375 30.9765625 C30.89127762 33.16095459 31.88678832 35.34227063 32.8828125 37.5234375 C33.52382496 38.93471991 34.16446439 40.34617183 34.8046875 41.7578125 C35.09737518 42.39848663 35.39006287 43.03916077 35.69161987 43.69924927 C37.37936433 47.44331465 38.69228422 51.07685267 40 55 C35.05 55 30.1 55 25 55 C22.525 49.06 22.525 49.06 20 43 C11.75 42.67 3.5 42.34 -5 42 C-5.33 43.65 -5.66 45.3 -6 47 C-6.91157699 49.70639177 -7.96214971 52.33768839 -9 55 C-13.95 55 -18.9 55 -24 55 C-21.23718881 47.98201576 -18.31145623 41.06501918 -15.234375 34.1796875 C-14.79611389 33.19501495 -14.35785278 32.21034241 -13.90631104 31.1958313 C-12.52263336 28.08810025 -11.1363631 24.98153387 -9.75 21.875 C-8.80451499 19.75268101 -7.85920088 17.63028588 -6.9140625 15.5078125 C-4.61134835 10.33765993 -2.30631028 5.16854935 0 0 Z " fill="#FFF9F9" transform="translate(382,77)"/>
<path d="M0 0 C3.75935456 2.77262592 7.04638028 5.74304434 8.38671875 10.3359375 C8.67578125 12.265625 8.67578125 12.265625 8.80078125 15.328125 C4.18078125 15.328125 -0.43921875 15.328125 -5.19921875 15.328125 C-5.85921875 13.678125 -6.51921875 12.028125 -7.19921875 10.328125 C-11.33244401 7.69789074 -16.44037336 7.74923146 -21.19921875 8.328125 C-23.4177347 9.27224452 -23.4177347 9.27224452 -25.19921875 10.328125 C-25.33362653 12.75732365 -25.33362653 12.75732365 -24.19921875 15.328125 C-18.52742095 18.22189939 -12.21171173 19.37975391 -6.01147461 20.70727539 C0.51481315 22.20491676 5.41418644 25.29166429 9.80078125 30.328125 C11.04412093 34.05814405 11.32371466 37.45399865 10.80078125 41.328125 C8.36428815 46.10739993 5.1979405 49.28393783 0.80078125 52.328125 C-4.78864895 54.03468507 -9.87229109 54.68612726 -15.69921875 54.640625 C-16.44461914 54.63571045 -17.19001953 54.6307959 -17.95800781 54.62573242 C-24.7954041 54.47947394 -29.53683804 53.56694515 -34.94921875 49.015625 C-41.08062037 41.6920064 -41.08062037 41.6920064 -41.44921875 37.453125 C-41.36671875 36.751875 -41.28421875 36.050625 -41.19921875 35.328125 C-38.20440958 34.4557838 -35.56345964 34.21982734 -32.44921875 34.265625 C-31.65 34.27464844 -30.85078125 34.28367188 -30.02734375 34.29296875 C-29.4240625 34.30457031 -28.82078125 34.31617188 -28.19921875 34.328125 C-27.66296875 35.441875 -27.12671875 36.555625 -26.57421875 37.703125 C-24.96479526 40.49843948 -24.36715394 41.24229146 -21.38671875 42.765625 C-15.85473123 43.74185809 -11.27951949 43.94085109 -6.19921875 41.328125 C-3.91193141 39.48928619 -3.91193141 39.48928619 -4.07421875 36.703125 C-4.11546875 35.919375 -4.15671875 35.135625 -4.19921875 34.328125 C-9.52145832 32.66786885 -14.82070233 31.17543292 -20.26171875 29.953125 C-27.21128242 28.2269142 -32.83155371 25.86903382 -37.76171875 20.578125 C-39.6626475 16.28037305 -40.34354406 12.93656434 -39.19921875 8.328125 C-36.39329603 3.44531084 -32.33787138 -0.61984202 -26.828125 -2.26953125 C-18.19404352 -3.59094342 -7.88142568 -4.34626193 0 0 Z " fill="#FFF8F8" transform="translate(270.19921875,78.671875)"/>
<path d="M0 0 C4.95 0 9.9 0 15 0 C15.32613281 1.11117187 15.65226562 2.22234375 15.98828125 3.3671875 C16.42967252 4.86979607 16.87107962 6.37239998 17.3125 7.875 C17.63250977 8.96554688 17.63250977 8.96554688 17.95898438 10.078125 C19.61839587 15.72507753 21.30388354 21.36396937 23 27 C23.20681396 26.25314941 23.41362793 25.50629883 23.62670898 24.73681641 C24.56151933 21.36561887 25.49946911 17.99530278 26.4375 14.625 C26.76298828 13.449375 27.08847656 12.27375 27.42382812 11.0625 C27.73642578 9.94101563 28.04902344 8.81953125 28.37109375 7.6640625 C28.65911865 6.62717285 28.94714355 5.5902832 29.24389648 4.52197266 C30 2 30 2 31 0 C35.95 0 40.9 0 46 0 C46 13.86 46 27.72 46 42 C43.03 42 40.06 42 37 42 C36.67 31.44 36.34 20.88 36 10 C35.236875 13.238125 34.47375 16.47625 33.6875 19.8125 C31.92576039 27.24942683 30.08547628 34.64595206 28 42 C24.7 42 21.4 42 18 42 C16.85110408 37.93835976 15.7064204 33.87554409 14.5625 29.8125 C14.07426758 28.08676758 14.07426758 28.08676758 13.57617188 26.32617188 C13.26357422 25.21435547 12.95097656 24.10253906 12.62890625 22.95703125 C12.34088135 21.93585205 12.05285645 20.91467285 11.75610352 19.86254883 C11.07030492 17.26616895 10.5266552 14.633276 10 12 C9.67 21.9 9.34 31.8 9 42 C6.03 42 3.06 42 0 42 C0 28.14 0 14.28 0 0 Z " fill="#9B0707" transform="translate(292,230)"/>
<path d="M0 0 C6.991875 -0.0928125 6.991875 -0.0928125 14.125 -0.1875 C15.58437988 -0.21481201 17.04375977 -0.24212402 18.54736328 -0.27026367 C19.70993652 -0.27775635 20.87250977 -0.28524902 22.0703125 -0.29296875 C23.25383301 -0.3086792 24.43735352 -0.32438965 25.65673828 -0.34057617 C30.59459962 0.16244096 33.84196856 1.87244307 37.375 5.3125 C39.37417257 8.61882387 39.62136958 10.1941113 39 14 C36.29588473 19.51639515 33.55938689 21.07559685 28 23 C28.42410156 23.37769531 28.84820312 23.75539062 29.28515625 24.14453125 C34.58152186 29.11496667 38.41267665 34.69765077 42 41 C42 41.33 42 41.66 42 42 C38.16744704 42.63406207 34.81374106 42.82513659 31 42 C27.65770015 39.11600882 25.3893024 35.68855439 23 32 C19.08366548 26.27612647 17.59615031 25.89903758 10 24 C10 29.94 10 35.88 10 42 C6.7 42 3.4 42 0 42 C0 28.14 0 14.28 0 0 Z " fill="#9C0808" transform="translate(395,230)"/>
<path d="M0 0 C16.83 0 33.66 0 51 0 C51 2.97 51 5.94 51 9 C45.06 9 39.12 9 33 9 C33 24.18 33 39.36 33 55 C28.38 55 23.76 55 19 55 C19 39.82 19 24.64 19 9 C12.73 9 6.46 9 0 9 C0 6.03 0 3.06 0 0 Z " fill="#FFF7F7" transform="translate(488,77)"/>
<path d="M0 0 C1.37478516 0.01740234 1.37478516 0.01740234 2.77734375 0.03515625 C3.69644531 0.04417969 4.61554688 0.05320313 5.5625 0.0625 C6.27277344 0.07410156 6.98304688 0.08570313 7.71484375 0.09765625 C12.57819947 9.36200641 16.90599779 18.85086222 21.15234375 28.41015625 C21.56425964 29.33521469 21.56425964 29.33521469 21.98449707 30.27896118 C26.71484375 40.91446917 26.71484375 40.91446917 26.71484375 42.09765625 C23.08484375 42.09765625 19.45484375 42.09765625 15.71484375 42.09765625 C12.71484375 35.47265625 12.71484375 35.47265625 12.71484375 32.09765625 C6.11484375 32.09765625 -0.48515625 32.09765625 -7.28515625 32.09765625 C-7.78015625 34.57265625 -7.78015625 34.57265625 -8.28515625 37.09765625 C-8.91952969 38.77688005 -9.57804947 40.44774043 -10.28515625 42.09765625 C-13.58515625 42.09765625 -16.88515625 42.09765625 -20.28515625 42.09765625 C-17.84145094 34.06058102 -14.51837647 26.47497525 -11.13232422 18.80175781 C-10.15103739 16.57698195 -9.17666975 14.34926684 -8.203125 12.12109375 C-7.58243154 10.7068555 -6.96135213 9.29278656 -6.33984375 7.87890625 C-6.04818329 7.21234009 -5.75652283 6.54577393 -5.45602417 5.85900879 C-2.91931371 0.124757 -2.91931371 0.124757 0 0 Z " fill="#9B0707" transform="translate(363.28515625,229.90234375)"/>
<path d="M0 0 C12.21 0 24.42 0 37 0 C37 2.31 37 4.62 37 7 C32.38 7 27.76 7 23 7 C23 18.55 23 30.1 23 42 C20.03 42 17.06 42 14 42 C14 30.45 14 18.9 14 7 C9.38 7 4.76 7 0 7 C0 4.69 0 2.38 0 0 Z " fill="#990000" transform="translate(441,230)"/>
<path d="M0 0 C3.06303578 -0.08115993 6.12390815 -0.14057409 9.1875 -0.1875 C10.48397461 -0.22520508 10.48397461 -0.22520508 11.80664062 -0.26367188 C16.72698209 -0.32022752 19.98693063 -0.19276261 24 3 C24.33 3.33 24.66 3.66 25 4 C24.9375 7.375 24.9375 7.375 24 11 C18.99679768 14.46983541 14.46134241 14.36901304 8.625 14.1875 C7.37783203 14.16719727 7.37783203 14.16719727 6.10546875 14.14648438 C4.07002934 14.11139059 2.03492709 14.05759228 0 14 C0 9.38 0 4.76 0 0 Z " fill="#FF4040" transform="translate(442,86)"/>
<path d="M0 0 C2.60478883 -0.0809313 5.20706653 -0.14045434 7.8125 -0.1875 C8.55048828 -0.21263672 9.28847656 -0.23777344 10.04882812 -0.26367188 C15.49553783 -0.33760911 15.49553783 -0.33760911 18.01953125 1.3515625 C19 3 19 3 18.875 5.5625 C18 8 18 8 15 10 C12.39754502 10.14221065 9.90882316 10.18802932 7.3125 10.125 C6.2596582 10.11146484 6.2596582 10.11146484 5.18554688 10.09765625 C3.45688475 10.07413704 1.72839855 10.03826713 0 10 C0 6.7 0 3.4 0 0 Z " fill="#F7F5F5" transform="translate(405,237)"/>
<path d="M0 0 C2.84857581 3.39604984 4.50580891 7.13067976 6.1875 11.1875 C6.59645508 12.14946289 6.59645508 12.14946289 7.01367188 13.13085938 C9 17.84527726 9 17.84527726 9 19 C3.72 19 -1.56 19 -7 19 C-6.10656817 14.53284086 -4.76463639 10.80385599 -2.9375 6.6875 C-2.65583984 6.04232422 -2.37417969 5.39714844 -2.08398438 4.73242188 C-1.3937257 3.15301642 -0.69746802 1.57623507 0 0 Z " fill="#FF4848" transform="translate(389,91)"/>
<path d="M0 0 C2.55263088 2.274694 3.84144815 4.43202693 5.1875 7.5625 C5.53167969 8.34753906 5.87585938 9.13257813 6.23046875 9.94140625 C7 12 7 12 7 14 C3.04 14 -0.92 14 -5 14 C-4.23539233 10.17696167 -3.52385218 7.61606762 -1.9375 4.1875 C-1.39416016 3.00220703 -1.39416016 3.00220703 -0.83984375 1.79296875 C-0.56269531 1.20128906 -0.28554688 0.60960937 0 0 Z " fill="#F3EAEA" transform="translate(365,241)"/>
</svg>
